<?xml version="1.0" standalone="no"?>
<!DOCTYPE svg PUBLIC "-//W3C//DTD SVG 20010904//EN"
 "http://www.w3.org/TR/2001/REC-SVG-20010904/DTD/svg10.dtd">
<svg version="1.0" xmlns="http://www.w3.org/2000/svg"
 width="700.000000pt" height="700.000000pt" viewBox="0 0 700.000000 700.000000"
 preserveAspectRatio="xMidYMid meet">
<metadata>
Created by potrace 1.11, written by Peter Selinger 2001-2013
</metadata>
<g transform="translate(0.000000,700.000000) scale(0.100000,-0.100000)"
fill="#000000" stroke="none">
<path d="M3498 5835 c-2 -3 0 -35 5 -72 7 -51 6 -113 -7 -248 -10 -99 -15
-209 -12 -244 10 -114 76 -215 166 -256 l40 -18 -33 -31 c-18 -17 -38 -39 -43
-49 -20 -36 -82 14 -73 59 6 32 -2 44 -31 44 -22 0 -30 -5 -31 -17 -5 -91 -3
-227 3 -243 6 -17 13 -20 30 -14 29 8 27 5 31 43 4 30 31 60 43 48 3 -2 7 -28
10 -57 7 -68 31 -116 87 -167 56 -52 68 -58 191 -99 114 -39 123 -40 147 -18
16 15 19 13 34 -16 20 -38 58 -55 145 -65 76 -8 94 -18 79 -46 -22 -43 30 -89
66 -59 22 18 18 44 -10 79 -25 29 -65 46 -173 72 -60 15 -84 41 -59 66 12 12
24 13 72 4 82 -15 151 -14 190 5 55 26 53 84 -2 84 -18 0 -28 -9 -39 -35 -12
-30 -19 -35 -47 -35 -17 1 -56 9 -86 19 -63 22 -96 19 -129 -12 l-23 -22 -18
23 c-12 17 -37 27 -91 38 -177 36 -280 120 -280 229 0 23 35 84 59 102 74 55
201 -12 155 -82 -21 -32 -29 -31 -32 1 -4 49 -60 75 -97 44 -43 -36 11 -130
75 -130 47 0 97 25 119 60 24 40 20 104 -8 134 -26 28 -27 41 -1 43 53 4 135
37 163 64 24 25 28 35 23 62 -3 18 -8 57 -11 87 -9 89 -60 141 -147 148 -49 3
-56 1 -84 -27 -31 -31 -47 -72 -37 -98 7 -17 54 -43 74 -40 36 6 39 17 17 57
-25 43 -21 53 22 56 69 5 102 -84 61 -165 -25 -47 -92 -109 -128 -117 -16 -3
-33 -7 -40 -9 -21 -7 -23 7 -4 34 20 29 18 68 -4 90 -22 23 -75 18 -97 -8 -23
-30 -23 -53 2 -76 45 -40 3 -48 -68 -12 -54 27 -117 102 -133 160 -12 43 -14
105 -4 115 3 3 23 -12 45 -33 49 -48 67 -42 91 29 19 56 23 60 71 75 21 7 51
25 68 41 30 28 31 30 16 58 -18 35 -40 46 -67 32 -22 -12 -23 -15 -9 -40 13
-24 -3 -34 -87 -50 -41 -8 -69 -20 -84 -36 -29 -31 -49 -31 -44 -1 5 25 39 72
108 151 55 62 67 109 30 114 -18 3 -22 11 -25 45 -3 36 -6 42 -28 45 -15 2
-33 16 -45 34 -21 32 -58 62 -67 53z"/>
<path d="M3332 5790 c-18 -22 -38 -37 -46 -34 -22 9 -39 -23 -33 -64 4 -36 3
-38 -18 -34 -56 10 -34 -54 51 -148 90 -99 114 -176 36 -113 -27 22 -53 32
-91 37 -29 3 -62 11 -73 17 -18 10 -19 12 -3 29 16 17 15 19 -10 36 -32 21
-55 11 -69 -30 -14 -38 18 -77 80 -97 50 -17 69 -39 76 -89 8 -61 49 -68 91
-15 54 67 66 35 31 -84 -28 -97 -89 -161 -173 -180 -44 -10 -49 -6 -27 18 38
42 12 121 -38 116 -62 -7 -81 -43 -51 -95 20 -35 19 -40 -12 -40 -37 1 -103
31 -130 61 -49 54 -67 144 -37 187 25 35 51 46 85 32 34 -15 36 -25 9 -42 -40
-26 -16 -70 33 -61 82 16 57 135 -34 161 -93 25 -169 -49 -185 -180 -4 -29
-10 -60 -14 -68 -4 -8 -5 -20 -3 -27 7 -21 72 -55 145 -77 l69 -22 -21 -27
c-12 -15 -24 -45 -27 -65 -4 -33 -1 -42 35 -78 47 -49 96 -63 141 -40 67 35
59 136 -11 136 -25 0 -32 -6 -50 -47 l-21 -47 -18 23 c-21 25 -16 45 18 82 20
22 31 26 61 22 89 -12 133 -60 127 -142 -8 -105 -116 -186 -272 -205 -65 -8
-81 -14 -94 -37 -12 -23 -37 -25 -45 -4 -10 24 -38 26 -119 10 -105 -22 -127
-18 -137 23 -7 25 -14 32 -33 32 -34 0 -58 -26 -45 -51 23 -43 113 -60 214
-40 59 11 96 0 96 -28 0 -29 -36 -43 -143 -57 -76 -10 -135 -62 -123 -109 9
-34 30 -41 61 -21 20 13 24 22 19 41 -5 22 -1 27 29 40 19 8 63 19 98 24 55 9
68 15 95 47 28 33 33 35 54 24 52 -28 259 60 345 146 24 23 47 87 61 167 4 26
11 37 24 37 20 0 30 -19 30 -60 0 -20 6 -29 21 -33 44 -12 47 -3 45 136 l-1
132 -31 3 c-30 3 -32 1 -38 -40 -5 -28 -15 -49 -29 -59 -22 -16 -24 -15 -70
31 l-47 47 40 13 c48 16 110 67 140 115 46 75 54 160 34 355 -5 47 -9 145 -9
218 0 151 -8 162 -63 92z"/>
<path d="M2682 4947 c-12 -13 -22 -34 -22 -48 0 -75 104 -169 205 -186 96 -16
200 14 108 32 -56 10 -111 42 -127 73 -23 45 -39 55 -70 41 -20 -9 -29 -9 -41
1 -21 17 -19 25 10 38 30 14 33 47 6 62 -30 15 -45 12 -69 -13z"/>
<path d="M4125 4948 c-15 -22 -14 -24 11 -46 39 -34 26 -56 -29 -48 -41 6 -43
5 -66 -33 -29 -47 -62 -67 -121 -76 -54 -8 -66 -15 -49 -26 23 -15 157 -10
196 6 116 49 189 168 138 225 -24 27 -60 25 -80 -2z"/>
<path d="M4634 4916 c-36 -16 -41 -22 -48 -59 -3 -17 2 -35 13 -48 19 -24 41
-19 41 9 0 10 13 25 28 34 28 17 29 17 57 -12 22 -23 28 -38 27 -70 -3 -62
-16 -82 -48 -70 -45 18 -82 12 -116 -19 -29 -26 -33 -35 -32 -80 l0 -50 -45
-8 c-25 -4 -49 -8 -53 -9 -5 -1 -19 -2 -33 -3 -32 -1 -34 -30 -2 -32 12 -1 36
-2 52 -3 47 -3 125 14 168 36 56 28 123 93 147 142 40 83 19 199 -43 236 -37
23 -70 25 -113 6z"/>
<path d="M2129 4893 c-43 -36 -59 -78 -54 -142 7 -100 73 -183 173 -221 68
-26 190 -37 220 -21 36 19 25 29 -30 30 -29 0 -66 4 -83 9 -26 7 -29 13 -30
48 0 29 -8 51 -28 77 -30 39 -45 43 -109 28 -34 -8 -37 -7 -47 18 -21 53 -20
77 6 109 35 46 93 40 93 -9 0 -10 5 -21 10 -24 20 -13 40 17 40 60 0 35 -4 44
-25 53 -46 21 -100 15 -136 -15z"/>
<path d="M2389 4836 c-9 -6 -18 -18 -21 -26 -9 -25 30 -88 70 -114 97 -64 342
-94 502 -62 116 23 240 86 240 123 0 19 -7 17 -53 -17 -62 -44 -150 -71 -232
-71 -100 -1 -128 6 -238 58 -104 50 -128 51 -135 4 -7 -47 -50 -11 -67 57 -13
49 -39 68 -66 48z"/>
<path d="M4442 4815 c-7 -14 -12 -33 -12 -41 0 -8 -12 -27 -26 -41 l-26 -26
-14 31 c-7 18 -20 32 -29 32 -8 0 -55 -20 -104 -44 -96 -49 -140 -59 -246 -58
-81 1 -166 28 -233 72 -47 31 -59 32 -49 6 9 -24 80 -64 164 -92 67 -23 96
-27 203 -27 225 -2 320 21 393 94 41 41 48 52 45 81 -2 27 -8 34 -29 36 -19 2
-28 -3 -37 -23z"/>
<path d="M2435 4464 c-33 -7 -72 -16 -86 -19 -57 -11 -188 -60 -264 -98 -245
-122 -355 -264 -355 -456 0 -80 20 -119 79 -152 23 -13 39 -28 36 -33 -3 -6
-8 -19 -11 -28 -4 -11 -19 -18 -48 -20 -37 -3 -41 -6 -42 -30 -1 -17 5 -28 15
-30 13 -3 181 -3 244 1 12 1 17 9 17 31 0 16 -3 29 -7 29 -36 -6 -74 4 -83 20
-9 17 -4 21 40 36 69 23 105 69 97 126 -12 88 -92 122 -150 64 -23 -22 -21
-29 8 -45 27 -15 31 -36 12 -61 -32 -42 -97 -31 -137 23 -26 36 -33 95 -10 89
48 -13 83 -4 111 27 16 18 29 36 29 41 0 5 -17 18 -37 28 -28 13 -38 24 -39
43 -1 32 28 90 67 134 29 34 114 96 130 96 5 0 -16 -36 -46 -80 -30 -45 -55
-92 -55 -105 0 -25 23 -55 43 -55 7 0 34 -11 61 -25 52 -25 67 -23 109 13 16
14 23 52 11 64 -3 3 -19 1 -35 -6 -27 -9 -33 -8 -45 8 -34 47 1 134 84 207 65
57 128 88 256 124 151 44 151 72 1 39z"/>
<path d="M4340 4466 c0 -9 7 -16 16 -16 26 0 153 -40 210 -66 163 -75 272
-218 220 -290 -12 -16 -18 -17 -45 -8 -33 13 -41 10 -41 -18 0 -56 97 -90 135
-48 10 11 28 20 41 20 39 0 54 11 54 40 0 33 -39 108 -87 166 -19 24 -31 44
-27 44 18 0 110 -59 142 -91 39 -39 72 -102 72 -139 0 -30 -27 -60 -53 -60
-20 0 -22 -28 -4 -51 32 -42 71 -53 118 -34 43 17 23 -71 -26 -114 -42 -36
-72 -39 -109 -10 -33 26 -33 42 0 63 33 22 28 44 -15 67 -34 18 -35 18 -73 -3
-37 -21 -45 -33 -54 -84 -7 -37 31 -90 82 -114 22 -11 46 -20 52 -20 7 0 12
-9 12 -19 0 -17 -8 -20 -47 -23 -42 -3 -48 -6 -49 -26 -1 -12 4 -26 10 -30 6
-3 67 -7 136 -7 103 0 126 2 131 15 11 25 -9 50 -41 50 -19 0 -34 8 -44 22
-22 31 -21 33 17 57 19 11 46 44 61 72 25 45 28 58 22 114 -13 132 -62 216
-188 317 -118 96 -258 162 -428 204 -138 33 -200 39 -200 20z"/>
<path d="M3436 4273 l-26 -79 0 -722 c0 -397 3 -722 5 -722 3 0 16 18 31 39
l26 40 0 756 c0 416 -2 759 -5 761 -3 3 -17 -30 -31 -73z"/>
<path d="M2430 3829 c0 -4 17 -13 38 -20 20 -6 42 -16 49 -21 13 -10 17 -487
4 -535 -6 -22 -17 -31 -54 -42 -91 -28 -50 -36 180 -34 133 1 237 6 264 13
100 27 162 78 206 168 24 50 28 69 28 147 0 78 -4 97 -27 141 -47 89 -110 141
-210 173 -41 14 -478 23 -478 10z m416 -49 c21 -7 56 -24 77 -37 149 -94 163
-354 26 -465 -84 -67 -206 -91 -276 -55 -37 19 -45 30 -49 66 -7 60 -5 494 3
502 20 19 146 13 219 -11z"/>
<path d="M4126 3833 c-1 -1 -79 -3 -174 -4 -122 -1 -172 -5 -169 -13 2 -6 21
-16 43 -22 l39 -11 2 -274 c1 -172 -3 -279 -9 -286 -5 -7 -25 -15 -44 -19 -73
-14 -28 -23 106 -21 149 2 178 13 91 36 -31 8 -50 19 -53 29 -2 9 -4 71 -3
137 l0 120 117 3 116 3 17 -46 c10 -25 22 -45 27 -45 11 0 5 216 -6 227 -6 6
-26 -40 -26 -62 0 -32 -42 -45 -145 -45 l-100 0 0 124 c0 145 -10 134 120 136
171 3 176 1 195 -70 12 -44 29 -53 31 -17 3 57 -3 112 -14 119 -10 6 -154 7
-161 1z"/>
<path d="M1745 3509 c-4 -5 -4 -21 -1 -35 5 -19 13 -24 40 -24 32 0 66 -24 66
-47 0 -6 -22 -25 -49 -42 -27 -18 -54 -45 -61 -61 -18 -44 -8 -174 19 -243 38
-96 171 -216 326 -294 127 -65 434 -148 458 -124 12 12 17 10 -93 41 -188 53
-299 122 -344 211 -28 57 -32 89 -16 120 11 20 54 26 65 9 10 -16 25 -1 25 24
0 32 -46 76 -79 76 -15 0 -38 -10 -51 -22 -13 -13 -33 -21 -43 -20 -27 5 -57
-26 -57 -59 0 -26 31 -80 94 -162 23 -30 25 -36 10 -30 -87 32 -204 162 -204
227 0 30 11 41 45 53 32 11 35 30 10 69 -16 25 -76 39 -104 25 -36 -20 -43 24
-11 76 32 53 95 74 138 47 30 -19 28 -48 -5 -73 l-28 -21 28 -25 c80 -71 184
35 132 135 -11 21 -31 35 -75 51 -80 29 -80 63 0 64 32 0 35 3 38 33 l3 32
-135 0 c-84 0 -137 -4 -141 -11z"/>
<path d="M4866 3512 c-3 -5 -3 -17 -1 -28 2 -10 4 -22 4 -26 1 -5 19 -8 41 -8
28 0 42 -5 49 -19 9 -16 3 -21 -50 -41 -70 -25 -101 -64 -95 -118 7 -68 88
-112 141 -78 32 21 32 39 0 60 -32 21 -32 39 0 64 37 29 82 21 123 -23 23 -25
32 -44 32 -70 0 -39 1 -39 -35 -25 -38 15 -67 4 -94 -35 -23 -34 -22 -55 3
-55 26 0 49 -38 42 -71 -11 -58 -120 -181 -178 -202 -24 -9 -23 0 8 36 14 16
38 56 55 88 25 50 27 62 17 84 -9 19 -19 25 -43 25 -19 0 -39 8 -49 19 -49 53
-138 19 -134 -52 2 -20 6 -26 18 -21 40 17 54 16 66 -1 19 -26 17 -52 -6 -101
-52 -107 -218 -210 -384 -240 -41 -7 -70 -24 -59 -35 13 -13 172 16 288 52
221 69 417 205 482 332 46 92 60 223 30 286 -7 14 -31 39 -54 56 -63 45 -51
94 21 90 34 -1 36 0 36 32 l0 33 -134 0 c-74 0 -137 -4 -140 -8z"/>
<path d="M2541 2806 c-45 -54 6 -115 119 -140 129 -29 146 -40 117 -80 -11
-15 -22 -17 -58 -12 -24 4 -75 9 -114 12 -62 5 -73 4 -97 -16 -33 -26 -37 -65
-8 -80 26 -14 39 -6 56 36 12 29 19 34 48 34 18 0 53 -7 76 -15 57 -20 100
-19 130 5 31 25 47 25 54 2 5 -14 28 -22 96 -35 49 -10 109 -26 132 -36 55
-23 113 -81 128 -128 43 -130 -84 -233 -197 -160 -16 10 -17 51 -3 78 13 22
30 25 30 4 0 -29 23 -64 46 -69 55 -14 87 39 59 95 -33 63 -128 65 -182 3 -44
-50 -45 -100 -3 -148 l30 -34 -52 -12 c-112 -27 -197 -87 -166 -118 6 -6 12
-27 14 -48 9 -106 31 -152 84 -179 78 -40 194 13 183 85 -9 58 -80 90 -107 48
-8 -14 -5 -21 18 -39 l29 -23 -23 -18 c-32 -26 -55 -22 -84 13 -74 88 11 239
149 265 37 7 46 -5 20 -26 -19 -16 -20 -84 -1 -99 26 -22 64 -23 86 -1 24 24
25 51 5 89 -17 35 -12 42 24 31 88 -25 169 -108 186 -190 4 -20 7 -71 6 -87
-2 -22 -28 -14 -54 17 -45 53 -92 31 -92 -43 l0 -41 -58 -17 c-72 -21 -85 -32
-93 -75 -10 -57 44 -98 76 -59 10 12 10 21 2 40 -13 28 -8 33 44 41 72 10 115
25 132 45 15 17 42 26 42 14 0 -23 -38 -80 -89 -135 -84 -90 -102 -150 -46
-150 21 0 23 -3 15 -29 -10 -34 -1 -50 30 -56 13 -3 28 -11 33 -20 40 -72 92
-86 77 -21 -9 40 -6 218 5 267 16 70 13 290 -4 342 -21 66 -88 140 -146 163
-25 9 -45 18 -45 19 0 1 21 23 46 49 44 46 46 47 70 32 22 -15 29 -28 25 -50
-1 -6 0 -20 3 -31 5 -21 17 -24 58 -16 4 0 6 61 5 134 l-2 132 -30 0 c-26 0
-30 -4 -37 -40 -15 -69 -48 -70 -48 -2 0 124 -108 227 -300 287 -74 23 -92 26
-112 16 -21 -11 -27 -9 -59 26 -33 35 -41 38 -90 39 -30 0 -70 6 -89 12 -29
10 -35 17 -35 42 -2 66 -34 97 -64 61z"/>
<path d="M4283 2799 c-7 -7 -8 -21 -3 -39 6 -19 4 -32 -3 -38 -12 -9 -80 -27
-145 -37 -43 -7 -68 -23 -81 -52 -9 -20 -14 -22 -30 -13 -28 15 -58 12 -131
-11 -77 -24 -181 -79 -217 -115 -24 -24 -83 -173 -83 -210 0 -12 -4 -12 -20
-4 -11 6 -20 20 -20 31 0 34 -19 59 -45 59 -28 0 -27 7 -29 -143 -1 -116 4
-138 35 -132 27 5 26 4 32 44 5 28 16 43 48 62 4 2 27 -15 53 -39 40 -37 44
-44 28 -50 -43 -17 -109 -67 -134 -101 -50 -70 -62 -128 -54 -274 4 -73 10
-150 14 -172 7 -36 7 -193 0 -255 -5 -42 27 -37 56 9 18 28 33 41 53 43 27 3
28 5 26 51 -3 46 -2 48 22 45 13 -2 25 -1 26 2 8 22 -38 94 -108 170 -35 37
-59 93 -48 110 4 7 20 -1 40 -19 22 -19 54 -33 92 -41 78 -16 98 -27 83 -46
-19 -22 -4 -44 29 -44 23 0 34 7 45 28 24 47 -13 90 -96 112 -26 6 -49 17 -49
23 -1 7 -2 28 -3 47 -2 66 -49 78 -100 25 -19 -19 -39 -35 -44 -35 -18 0 -3
102 23 157 13 29 36 65 52 79 33 32 99 63 131 64 l23 0 -20 -26 c-37 -47 -19
-98 40 -107 33 -6 55 8 67 42 8 23 6 34 -9 57 -26 40 -24 46 17 40 44 -8 83
-27 110 -58 71 -76 85 -164 36 -211 -28 -27 -47 -32 -76 -21 -21 8 -20 27 3
55 25 31 11 59 -29 59 -34 0 -70 -40 -70 -77 0 -27 40 -69 84 -88 24 -10 38
-10 74 0 79 24 113 73 118 170 1 33 6 72 9 87 6 23 2 30 -34 52 -23 15 -69 34
-104 42 -34 9 -65 18 -69 20 -4 3 4 21 17 41 38 54 33 97 -14 144 -33 33 -45
39 -81 39 -33 0 -48 -6 -71 -29 -33 -33 -39 -80 -13 -105 29 -30 84 -11 84 29
0 59 28 67 50 14 10 -24 10 -33 -4 -54 -19 -29 -53 -39 -108 -32 -106 14 -140
144 -62 237 51 60 126 93 239 105 44 5 67 13 85 31 26 24 26 24 45 4 27 -26
60 -30 120 -13 99 27 122 27 136 1 7 -13 12 -24 11 -25 -17 -25 34 -40 59 -17
26 23 24 40 -7 69 -31 29 -93 33 -201 13 -66 -12 -79 -8 -85 27 -4 24 29 41
97 50 67 9 107 27 139 61 29 32 35 79 10 88 -24 9 -49 7 -61 -5z"/>
<path d="M2314 2605 c-95 -22 -188 -94 -220 -170 -19 -47 -23 -127 -7 -166 28
-72 134 -109 179 -63 33 32 40 70 19 94 -23 25 -45 26 -45 1 0 -23 -25 -51
-45 -51 -24 0 -64 44 -68 76 -3 17 1 45 9 62 13 31 13 31 51 19 21 -7 48 -11
60 -9 26 4 72 48 74 71 3 38 7 76 8 82 2 11 78 27 115 23 42 -4 55 10 25 26
-31 17 -97 19 -155 5z"/>
<path d="M4452 2606 c-29 -6 -53 -15 -53 -21 1 -5 29 -11 63 -13 87 -5 96 -12
95 -67 0 -34 5 -51 23 -70 28 -30 82 -42 118 -26 22 11 28 10 39 -5 7 -10 13
-39 13 -64 0 -36 -5 -52 -24 -69 -34 -32 -72 -23 -81 19 -8 37 -18 38 -44 5
-16 -21 -18 -31 -10 -55 15 -41 33 -53 85 -54 41 -1 49 3 85 41 39 42 43 56
41 135 -3 151 -184 277 -350 244z"/>
<path d="M2573 2471 c-91 -25 -144 -52 -177 -92 -31 -36 -32 -85 -3 -103 26
-17 50 4 62 53 15 61 65 93 65 42 0 -31 36 -31 94 -1 82 43 142 61 226 67 99
7 180 -9 264 -52 73 -37 91 -38 61 -5 -27 30 -94 66 -150 79 -27 7 -59 15 -70
18 -11 3 -83 7 -160 9 -115 3 -153 1 -212 -15z"/>
<path d="M4008 2485 c-2 -2 -22 -5 -44 -8 -70 -10 -137 -29 -184 -53 -67 -34
-84 -49 -77 -68 6 -15 14 -13 70 18 91 51 143 67 218 68 63 0 131 -19 304 -86
38 -14 41 -14 57 5 9 10 18 25 21 32 7 21 46 -22 59 -65 9 -32 40 -64 57 -61
11 3 21 31 21 60 0 56 -96 124 -211 149 -24 5 -286 13 -291 9z"/>
<path d="M3905 2402 c-43 -5 -53 -20 -19 -27 79 -18 118 -40 148 -83 29 -41
33 -43 76 -40 36 2 45 0 48 -14 2 -12 -6 -21 -22 -28 -47 -18 -24 -70 32 -70
40 0 53 38 43 127 -2 20 -70 81 -114 102 -23 11 -60 23 -82 26 -22 3 -49 7
-60 9 -11 1 -33 1 -50 -2z"/>
<path d="M2815 2382 c-34 -11 -67 -33 -103 -69 -49 -49 -53 -56 -50 -94 4 -55
40 -85 81 -70 34 13 34 39 0 66 -36 30 -23 48 29 40 38 -7 41 -5 91 48 40 43
63 59 99 68 26 7 45 16 42 21 -9 14 -137 7 -189 -10z"/>
</g>
</svg>
